HIERARCHY
ROOT Hips
{
  OFFSET -125.267 89.498 -143.301
  CHANNELS 6 Xposition Yposition Zposition Zrotation Xrotation Yrotation
  JOINT RightUpLeg
  {
    OFFSET -8.9458 -8.66707 0.101652
    CHANNELS 3 Zrotation Xrotation Yrotation
    JOINT RightLeg
    {
      OFFSET 0 -44.4227 1.3727
      CHANNELS 3 Zrotation Xrotation Yrotation
      JOINT RightFoot
      {
        OFFSET 0.253549 -42.0924 -1.46059
        CHANNELS 3 Zrotation Xrotation Yrotation
        JOINT RightToes
        {
          OFFSET 0.04 -4.41509 8.4991
          CHANNELS 3 Zrotation Xrotation Yrotation
          End Site
          {
            OFFSET -0.08 -0.137448 9.77979
          }
        }
      }
    }
  }
  JOINT Spine
  {
    OFFSET 0 11.8905 0
    CHANNELS 3 Zrotation Xrotation Yrotation
    JOINT Spine1
    {
      OFFSET 0 25.6574 0.127663
      CHANNELS 3 Zrotation Xrotation Yrotation
      JOINT HEad
      {
        OFFSET 0 8.73416 0.011341
        CHANNELS 3 Zrotation Xrotation Yrotation
        End Site
        {
          OFFSET -0.29 12.7742 2.51395
        }
      }
      JOINT LeftShoulder1
      {
        OFFSET 8.99 -0.362252 -0.22
        CHANNELS 3 Zrotation Xrotation Yrotation
        JOINT LeftArm
        {
          OFFSET 10.2827 -0.00338 0.322123
          CHANNELS 3 Zrotation Xrotation Yrotation
          JOINT LeftForeArm
          {
            OFFSET 32.7669 0.099144 -1.42434
            CHANNELS 3 Zrotation Xrotation Yrotation
            JOINT LeftHand
            {
              OFFSET 27.5643 0.085362 1.02216
              CHANNELS 3 Zrotation Xrotation Yrotation
              End Site
              {
                OFFSET 16.7443 -0.6 1.50291
              }
            }
          }
        }
      }
      JOINT RightShoulder
      {
        OFFSET -8.99 -0.362252 -0.22
        CHANNELS 3 Zrotation Xrotation Yrotation
        JOINT RightArm
        {
          OFFSET -10.2827 -0.00338 0.322123
          CHANNELS 3 Zrotation Xrotation Yrotation
          JOINT RightForeArm
          {
            OFFSET -32.8971 0.099144 -1.42434
            CHANNELS 3 Zrotation Xrotation Yrotation
            JOINT RightHand
            {
              OFFSET -27.4921 0.085362 1.02216
              CHANNELS 3 Zrotation Xrotation Yrotation
              End Site
              {
                OFFSET -16.6312 -0.6 1.50291
              }
            }
          }
        }
      }
    }
  }
  JOINT LeftUpLeg
  {
    OFFSET 8.9458 -8.66707 0.101652
    CHANNELS 3 Zrotation Xrotation Yrotation
    JOINT LeftLeg
    {
      OFFSET 0 -44.4227 1.3727
      CHANNELS 3 Zrotation Xrotation Yrotation
      JOINT LeftFoot
      {
        OFFSET -0.253549 -42.0924 -1.46059
        CHANNELS 3 Zrotation Xrotation Yrotation
        JOINT LeftToes
        {
          OFFSET -0.04 -4.41509 8.4991
          CHANNELS 3 Zrotation Xrotation Yrotation
          End Site
          {
            OFFSET 0.08 -0.047448 9.77979
          }
        }
      }
    }
  }
}
MOTION
Frames:	16
Frame Time:	0.0166667
-155.719 95.8558 -124.059 -4.581 -7.68279 -14.7383 -9.40332 -1.785 3.33581 3.18112 27.9516 8.91282 14.0111 6.5304 -1.8169 -14.9439 -9.12233 34.1206 -0.96363 11.8144 1.06937 1.79034 23.642 1.11174 -1.19228 -16.1004 28.7059 -7.95139e-016 0 -0 -49.3384 -55.4568 -2.05311 -32.9941 39.8998 -84.4056 5.78881 8.4296 -28.376 27.2558 5.19163 15.5681 33.5306 -4.2319 31.0293 12.3938 37.0992 123.433 1.58324 9.46103 -26.1291 23.0193 -13.7633 -4.42548 -11.703 44.1104 2.56154 -24.381 24.0115 6.64769 -10.3081 -24.3054 -22.6697 
-155.181 95.8968 -124.403 -4.5687 -8.23511 -14.5866 -9.24532 -2.85558 2.33269 3.88409 30.7131 4.64161 13.857 9.01453 -2.08037 -17.1535 -12.9628 34.4968 -0.450491 11.8562 0.769351 1.5972 23.7387 0.779733 -1.24812 -15.5483 28.6293 -7.95139e-016 0 -1.59028e-015 -48.9954 -57.4013 -2.34598 -33.5636 39.6829 -81.5053 6.06872 8.34348 -28.4703 26.4253 5.49583 17.1012 32.8664 -4.03834 32.2639 11.9985 37.2338 124.949 1.92916 9.30831 -29.766 22.9636 -12.7978 -7.31487 -9.76964 40.0318 6.35933 -20.1459 23.4617 5.34606 -10.3833 -25.0095 -21.0854 
-154.652 95.5614 -124.702 -4.64185 -9.01322 -14.1515 -9.28468 -3.47959 1.55522 5.56129 33.7963 0.71201 13.8215 9.6597 -2.1484 -18.8427 -15.9327 34.3289 0.138858 11.9593 0.434451 1.53572 23.967 0.345617 -1.1848 -14.9291 28.3017 7.95139e-016 3.18055e-015 1.59028e-015 -50.1146 -58.8325 -4.48074 -34.1497 39.0751 -77.7878 6.18648 8.29268 -28.791 25.3421 5.78153 18.8219 32.9893 -5.55508 34.8392 12.127 38.3576 125.579 1.86025 9.24699 -33.0138 22.9397 -11.6659 -10.0632 -7.57489 35.9041 10.628 -15.8121 22.0983 3.96495 -9.34923 -24.0879 -17.777 
-154.122 94.9052 -124.917 -4.73378 -9.92668 -13.4872 -9.56692 -3.41966 1.05716 8.07008 36.3345 -2.31113 14.0386 8.79597 -2.08183 -20.0036 -17.9506 33.933 0.627263 12.1104 0.154833 1.61801 24.3005 -0.072653 -1.17655 -14.288 27.6311 0 0 -3.18055e-015 -52.926 -59.6864 -8.80012 -34.8866 38.017 -73.2097 6.08853 8.2976 -29.2655 23.6146 5.89486 20.5246 34.755 -8.69856 38.9175 12.7508 40.4887 125.026 1.35255 9.3261 -35.567 22.7878 -10.4701 -12.1641 -4.94422 32.0093 13.9578 -12.4571 19.8528 2.85312 -7.18095 -20.819 -12.827 
-153.563 94.0222 -125.023 -4.78021 -10.8928 -12.6566 -9.99049 -2.5155 0.778511 10.644 37.5409 -4.39834 14.2142 7.55301 -1.96193 -21.5002 -20.4713 33.195 0.940094 12.3243 0.0347991 1.79957 24.7523 -0.279474 -1.37212 -13.7195 26.4203 -7.95139e-016 -3.18055e-015 -0 -57.6922 -59.7828 -15.6947 -35.7317 36.5047 -67.968 5.84015 8.35076 -29.7037 21.0452 5.6792 21.8566 38.9251 -12.9552 44.7119 13.8436 43.3894 123.09 0.402355 9.57233 -37.0759 22.3933 -9.26731 -13.3496 -2.06577 28.4902 15.7235 -10.6724 17.4923 2.21664 -4.78881 -15.9264 -7.41536 
-152.918 93.0062 -125.012 -4.79503 -11.86 -11.7833 -10.3948 -0.809099 0.818415 12.5586 37.2777 -5.80765 13.7188 6.22899 -1.74638 -23.6142 -23.8085 31.5517 1.22044 12.5874 0.132951 2.01799 25.2962 -0.0654392 -1.82768 -13.2218 24.5101 -8.82781e-032 -3.18055e-015 -1.59028e-015 -64.03 -58.7707 -24.775 -36.4124 34.6716 -62.6116 5.62661 8.40881 -29.8484 17.9441 5.15661 22.593 45.7322 -17.5956 52.2223 15.4853 46.8527 119.61 -1.02582 9.98621 -37.1678 21.8244 -8.1505 -13.6574 0.501038 25.6422 16.1128 -10.2226 15.8862 1.98421 -3.19882 -11.7408 -2.75524 
-152.137 91.9369 -124.918 -4.80198 -12.8371 -11.0505 -10.7675 1.46801 1.46541 13.735 36.0032 -6.73991 12.1477 3.97008 -1.33079 -25.269 -26.1001 28.9707 1.53559 12.8643 0.476092 2.18861 25.8672 0.695846 -2.49612 -12.6667 21.9348 -8.82781e-032 -3.18055e-015 -1.59028e-015 -70.4709 -56.3643 -34.3018 -36.6225 32.819 -58.0005 5.622 8.42544 -29.519 15.0197 4.55552 22.8769 54.765 -21.9257 61.0708 17.9314 50.8281 114.427 -2.95332 10.5132 -35.6104 21.2628 -7.31764 -13.4366 2.04289 24.0914 15.8823 -10.441 15.2281 1.97331 -2.77175 -10.5262 0.559953 
-151.177 90.8742 -124.818 -4.83131 -13.8563 -10.6535 -11.2322 3.94974 2.86947 14.4548 34.3638 -7.22767 9.86265 0.235268 -0.80166 -25.1149 -25.6731 26.5873 1.83724 13.1545 1.06404 2.27205 26.4633 2.00186 -3.28212 -11.9991 18.9171 1.59028e-015 3.18055e-015 -1.59028e-015 -73.7951 -51.045 -40.9176 -35.2208 29.5667 -56.4913 5.66952 8.45439 -28.5889 12.8008 4.08329 23.0339 65.2988 -25.354 70.6386 21.5211 55.2037 107.5 -5.22083 11.0103 -32.5228 20.912 -7.08583 -13.1084 2.08015 24.6122 15.8378 -10.8502 15.029 2.03765 -3.26322 -12.6422 2.17169 
-149.994 89.879 -124.798 -4.94053 -14.8625 -10.7689 -11.8894 6.11087 4.67814 14.7919 32.9131 -7.30851 7.74677 -3.82839 -0.407082 -23.6983 -23.6278 25.1206 2.10107 13.4827 1.84985 2.31422 27.1348 3.72088 -4.13083 -11.3879 15.7912 3.97569e-016 0 -7.95139e-016 -74.7273 -45.407 -44.6205 -33.8327 26.9384 -57.0651 5.57187 8.52316 -27.7031 11.2806 3.77607 23.2644 76.4481 -27.4023 80.0362 26.4636 59.589 99.1451 -7.46852 11.3159 -28.4211 20.912 -7.72595 -12.7441 0.660454 27.397 16.2235 -11.3275 15.109 2.13988 -4.36496 -16.8939 1.72597 
-148.552 89.0383 -124.906 -5.15263 -15.6195 -11.5458 -12.7278 7.22496 6.10065 14.5509 32.1544 -6.86345 6.35448 -6.09087 -0.249084 -23.1149 -22.7914 23.8884 2.36013 13.8256 2.73721 2.35498 27.8448 5.64432 -5.06157 -11.1581 12.9558 -5.96354e-016 0 3.97569e-016 -75.5476 -42.3919 -46.5312 -34.3901 27.4965 -57.9425 4.90414 8.70769 -27.8359 10.0716 3.55346 23.6312 87.13 -28.0499 88.0123 32.5941 63.4233 90.2275 -9.3538 11.3774 -24.0555 21.2542 -9.33151 -11.9461 -1.58567 31.7468 16.5485 -11.9779 16.1321 2.37027 -6.02659 -21.9478 -0.946892 
-146.873 88.4493 -125.13 -5.35205 -15.779 -13.0928 -13.6869 6.54621 6.42455 13.4518 32.5338 -5.4154 5.88826 -5.22528 -0.281651 -24.7281 -24.8243 22.066 2.57995 14.104 3.64322 2.2931 28.4372 7.61121 -6.09508 -11.6375 10.7955 2.98177e-016 0 9.93923e-016 -75.434 -41.5909 -45.982 -36.7969 30.1301 -59.3108 2.9172 9.24265 -29.3476 8.80796 3.31903 24.0635 96.4022 -27.9071 93.5092 39.2826 66.305 81.9888 -10.769 11.2738 -20.1285 21.8137 -11.8087 -10.2913 -3.76658 36.5758 16.0926 -13.095 18.7116 2.88317 -8.20635 -26.493 -5.70259 
-145.039 88.1694 -125.411 -5.31727 -15.1228 -15.4593 -14.6984 3.65558 5.39264 11.123 34.2317 -2.32488 6.78458 -1.36632 -0.504291 -28.4493 -29.183 19.7585 2.63099 14.252 4.54506 1.90826 28.7638 9.5802 -7.15854 -13.0159 9.57535 -2.98177e-016 -6.36111e-015 2.98177e-016 -70.884 -38.9277 -41.3922 -38.1564 30.2708 -64.2893 -1.0054 10.4435 -31.2902 7.49724 3.03827 24.2709 103.554 -27.6956 96.1589 45.5242 68.1092 75.6166 -11.8453 11.1204 -17.0212 22.5215 -14.8117 -7.87219 -5.39585 40.8456 14.5779 -14.9669 22.3884 3.77938 -10.3175 -28.9927 -11.6039 
-143.153 88.1787 -125.702 -4.91216 -13.7703 -18.6138 -15.6294 -1.27864 3.23143 7.15958 36.8977 2.73863 9.74337 4.69356 -1.14157 -33.4859 -34.666 18.1151 2.40281 14.2704 5.42682 1.05758 28.7983 11.5159 -8.08322 -15.2371 9.43454 -2.98177e-016 6.36111e-015 3.97569e-016 -65.1645 -37.104 -35.874 -39.5602 30.9636 -69.9454 -6.09093 12.1536 -32.9297 6.60769 2.79458 23.9371 107.691 -27.8201 96.0882 50.002 68.8598 72.0919 -12.7838 10.9768 -14.6603 23.4242 -17.6895 -5.30954 -6.62142 43.6752 12.2348 -17.4248 25.7711 4.93538 -11.3491 -28.8227 -16.6887 
-141.308 88.3506 -125.991 -4.25656 -12.1346 -22.3935 -16.2599 -7.4772 0.599723 1.59308 39.6197 9.12223 15.4054 12.4349 -2.74421 -39.1069 -40.9398 18.6835 1.85434 14.2196 6.20647 -0.141973 28.6477 13.2108 -8.67954 -18.0217 10.4807 -1.98785e-016 0 -0 -59.0384 -37.2137 -30.7682 -40.7728 32.3303 -75.1004 -11.0523 13.8771 -33.6648 6.75164 2.74118 23.1342 107.897 -28.4266 93.7203 51.5653 68.6456 71.9815 -13.6553 10.8327 -12.6737 24.5595 -19.6693 -3.4316 -7.69885 44.514 9.48679 -19.6666 27.4563 5.88913 -11.0939 -27.0709 -19.4406 
-139.58 88.4522 -126.269 -3.72179 -10.6506 -26.4363 -16.3434 -13.77 -1.62935 -4.58124 41.5415 15.0141 23.8752 21.4013 -6.09085 -44.4055 -47.9755 22.2951 1.02908 14.1682 6.72094 -1.31386 28.4874 14.279 -8.79028 -21.0006 12.8327 -1.59028e-015 -9.54166e-015 1.59028e-015 -52.8001 -40.7054 -26.5849 -42.5355 33.9382 -78.0036 -14.6652 15.1462 -33.9813 8.15079 2.96647 22.4084 103.936 -29.5355 89.726 49.9141 67.5333 75.1156 -14.3147 10.6554 -10.7572 25.8645 -20.198 -3.00777 -8.47679 43.3048 6.88751 -20.722 26.9335 6.12698 -10.3902 -25.4698 -19.8836 
-137.986 88.2476 -126.439 -3.75152 -9.51057 -30.2356 -15.7043 -19.1018 -2.82431 -9.87322 42.8728 18.836 33.8202 29.9356 -11.3088 -47.6394 -54.353 28.1803 0.249923 14.135 6.77274 -2 28.4466 14.3479 -8.31066 -23.7538 16.5043 -1.59028e-015 3.18055e-015 -0 -46.3513 -48.0284 -23.1407 -46.2893 34.5987 -76.4691 -16.8871 16.0387 -34.7656 10.4762 3.46289 22.3408 96.546 -31.0938 84.7896 45.8533 65.5954 80.4837 -14.5578 10.4523 -8.94353 27.2188 -19.1496 -4.39083 -8.43503 40.4743 4.99795 -20.3703 24.8034 5.6434 -10.0196 -25.1337 -18.7665 
